<svg width="36" height="18" viewBox="0 0 36 18" fill="none" xmlns="http://www.w3.org/2000/svg">
<path d="M6.63636 17.2727L6.86364 11.0227L1.57955 14.375L0.215909 11.9886L5.78409 9.09091L0.215909 6.19318L1.57955 3.80682L6.86364 7.15909L6.63636 0.90909H9.36364L9.13636 7.15909L14.4205 3.80682L15.7841 6.19318L10.2159 9.09091L15.7841 11.9886L14.4205 14.375L9.13636 11.0227L9.36364 17.2727H6.63636ZM26.6364 17.2727L26.8636 11.0227L21.5795 14.375L20.2159 11.9886L25.7841 9.09091L20.2159 6.19318L21.5795 3.80682L26.8636 7.15909L26.6364 0.90909H29.3636L29.1364 7.15909L34.4205 3.80682L35.7841 6.19318L30.2159 9.09091L35.7841 11.9886L34.4205 14.375L29.1364 11.0227L29.3636 17.2727H26.6364Z" fill="#164B2C"/>
</svg>
